<mxfile host="Electron" modified="2023-10-04T09:33:51.696Z" agent="5.0 (Windows NT 10.0; Win64; x64) AppleWebKit/537.36 (KHTML, like Gecko) draw.io/20.3.0 Chrome/104.0.5112.114 Electron/20.1.3 Safari/537.36" etag="agSHoJjEl8I0jdZZfli2" compressed="false" version="20.3.0" type="device">
  <diagram name="ND0014" id="dXk_gF_gWXeMhfjXO4UZ">
    <mxGraphModel dx="782" dy="531" grid="1" gridSize="2" guides="1" tooltips="1" connect="0" arrows="1" fold="1" page="1" pageScale="1" pageWidth="1169" pageHeight="827" math="0" shadow="0">
      <root>
        <mxCell id="ghxMztDACuWbekmF2jji-0" />
        <mxCell id="ghxMztDACuWbekmF2jji-135" value="Label" style="locked=1;" parent="ghxMztDACuWbekmF2jji-0" />
        <object label="Symbol" Width="12" Height="8" UoM="mm" id="ghxMztDACuWbekmF2jji-124">
          <mxCell style="locked=1;" parent="ghxMztDACuWbekmF2jji-0" />
        </object>
        <mxCell id="7BvuQ1wFKm2BExs7mEzO-0" value="" style="rounded=0;whiteSpace=wrap;html=1;fillColor=none;" parent="ghxMztDACuWbekmF2jji-124" vertex="1">
          <mxGeometry x="256" y="112" width="192" height="128" as="geometry" />
        </mxCell>
        <mxCell id="7BvuQ1wFKm2BExs7mEzO-5" value="" style="endArrow=none;html=1;rounded=0;exitX=0;exitY=0.5;exitDx=0;exitDy=0;" parent="ghxMztDACuWbekmF2jji-124" source="7BvuQ1wFKm2BExs7mEzO-0" edge="1">
          <mxGeometry width="50" height="50" relative="1" as="geometry">
            <mxPoint x="298" y="320" as="sourcePoint" />
            <mxPoint x="320" y="176" as="targetPoint" />
          </mxGeometry>
        </mxCell>
        <mxCell id="7BvuQ1wFKm2BExs7mEzO-6" value="" style="endArrow=none;html=1;rounded=0;" parent="ghxMztDACuWbekmF2jji-124" edge="1">
          <mxGeometry width="50" height="50" relative="1" as="geometry">
            <mxPoint x="288" y="176" as="sourcePoint" />
            <mxPoint x="304" y="128" as="targetPoint" />
          </mxGeometry>
        </mxCell>
        <mxCell id="7BvuQ1wFKm2BExs7mEzO-7" value="" style="endArrow=none;html=1;rounded=0;" parent="ghxMztDACuWbekmF2jji-124" edge="1">
          <mxGeometry width="50" height="50" relative="1" as="geometry">
            <mxPoint x="304" y="128" as="sourcePoint" />
            <mxPoint x="360" y="224" as="targetPoint" />
            <Array as="points">
              <mxPoint x="360" y="224" />
            </Array>
          </mxGeometry>
        </mxCell>
        <mxCell id="7BvuQ1wFKm2BExs7mEzO-8" value="" style="endArrow=none;html=1;jumpStyle=none;rounded=0;" parent="ghxMztDACuWbekmF2jji-124" edge="1">
          <mxGeometry width="50" height="50" relative="1" as="geometry">
            <mxPoint x="360" y="224" as="sourcePoint" />
            <mxPoint x="384" y="176" as="targetPoint" />
            <Array as="points">
              <mxPoint x="384" y="176" />
            </Array>
          </mxGeometry>
        </mxCell>
        <mxCell id="7BvuQ1wFKm2BExs7mEzO-14" value="" style="endArrow=none;html=1;rounded=0;" parent="ghxMztDACuWbekmF2jji-124" edge="1">
          <mxGeometry width="50" height="50" relative="1" as="geometry">
            <mxPoint x="320" y="176" as="sourcePoint" />
            <mxPoint x="336" y="128" as="targetPoint" />
          </mxGeometry>
        </mxCell>
        <mxCell id="7BvuQ1wFKm2BExs7mEzO-15" value="" style="endArrow=none;html=1;rounded=0;" parent="ghxMztDACuWbekmF2jji-124" edge="1">
          <mxGeometry width="50" height="50" relative="1" as="geometry">
            <mxPoint x="336" y="128" as="sourcePoint" />
            <mxPoint x="392" y="224" as="targetPoint" />
            <Array as="points">
              <mxPoint x="392" y="224" />
            </Array>
          </mxGeometry>
        </mxCell>
        <mxCell id="7BvuQ1wFKm2BExs7mEzO-16" value="" style="endArrow=none;html=1;jumpStyle=none;rounded=0;" parent="ghxMztDACuWbekmF2jji-124" edge="1">
          <mxGeometry width="50" height="50" relative="1" as="geometry">
            <mxPoint x="392" y="224" as="sourcePoint" />
            <mxPoint x="416" y="176" as="targetPoint" />
            <Array as="points" />
          </mxGeometry>
        </mxCell>
        <mxCell id="7BvuQ1wFKm2BExs7mEzO-17" value="" style="endArrow=none;html=1;rounded=0;exitX=0;exitY=0.5;exitDx=0;exitDy=0;" parent="ghxMztDACuWbekmF2jji-124" edge="1">
          <mxGeometry width="50" height="50" relative="1" as="geometry">
            <mxPoint x="384" y="175.9" as="sourcePoint" />
            <mxPoint x="448" y="175.9" as="targetPoint" />
          </mxGeometry>
        </mxCell>
        <mxCell id="ghxMztDACuWbekmF2jji-128" value="Connection" style="" parent="ghxMztDACuWbekmF2jji-0" />
        <object label="Connection" PipingConnector="Y" LabelConnector="N" SignalConnector="N" Direction="0" AuxiliaryConnector="N" id="ghxMztDACuWbekmF2jji-129">
          <mxCell style="vsdxID=1407;fillColor=none;gradientColor=none;shape=stencil(rVFbDsIgEDwNnyQU4glqvcfGblsilmZBS28vZGMsxg9j/JvZmX1kR5g2TLCg0CpE8hdcbR8nYY5CaztPSDZmJEwnTDt4wpH8be6ZL1CcBV39vUxI3KdKh1YbswPTEzuBzlmiVGmKau9zUKM+jlJJQrJBko8QrZ+rrQ5oRJnXyMHBWElhRVx25ebnw/5zVvPFWRm83jxY5zilvf4eSy5xpKZ7AA==);strokeColor=#00FF00;strokeWidth=1;points=[[0.5,0.5,0,0,0]];labelBackgroundColor=none;rounded=0;html=1;whiteSpace=wrap;aspect=fixed;noLabel=1;snapToPoint=1;container=0;fontSize=16;fontFamily=Helvetica;" parent="ghxMztDACuWbekmF2jji-128" vertex="1">
            <mxGeometry x="442" y="170" width="12" height="12" as="geometry" />
          </mxCell>
        </object>
        <object label="Connection" PipingConnector="Y" LabelConnector="N" SignalConnector="N" Direction="180" AuxiliaryConnector="N" id="ghxMztDACuWbekmF2jji-130">
          <mxCell style="vsdxID=1407;fillColor=none;gradientColor=none;shape=stencil(rVFbDsIgEDwNnyQU4glqvcfGblsilmZBS28vZGMsxg9j/JvZmX1kR5g2TLCg0CpE8hdcbR8nYY5CaztPSDZmJEwnTDt4wpH8be6ZL1CcBV39vUxI3KdKh1YbswPTEzuBzlmiVGmKau9zUKM+jlJJQrJBko8QrZ+rrQ5oRJnXyMHBWElhRVx25ebnw/5zVvPFWRm83jxY5zilvf4eSy5xpKZ7AA==);strokeColor=#00FF00;strokeWidth=1;points=[[0.5,0.5,0,0,0]];labelBackgroundColor=none;rounded=0;html=1;whiteSpace=wrap;aspect=fixed;noLabel=1;snapToPoint=1;container=0;fontSize=16;fontFamily=Helvetica;" parent="ghxMztDACuWbekmF2jji-128" vertex="1">
            <mxGeometry x="250" y="170" width="12" height="12" as="geometry" />
          </mxCell>
        </object>
        <mxCell id="ghxMztDACuWbekmF2jji-137" value="Origo" style="locked=1;" parent="ghxMztDACuWbekmF2jji-0" />
        <object label="origo" id="ghxMztDACuWbekmF2jji-138">
          <mxCell style="vsdxID=1407;fillColor=none;gradientColor=none;shape=stencil(rVFbDsIgEDwNnyQU4glqvcfGblsilmZBS28vZGMsxg9j/JvZmX1kR5g2TLCg0CpE8hdcbR8nYY5CaztPSDZmJEwnTDt4wpH8be6ZL1CcBV39vUxI3KdKh1YbswPTEzuBzlmiVGmKau9zUKM+jlJJQrJBko8QrZ+rrQ5oRJnXyMHBWElhRVx25ebnw/5zVvPFWRm83jxY5zilvf4eSy5xpKZ7AA==);strokeColor=#ff0000;strokeWidth=1;points=[[0.5,0.5,0,0,0]];labelBackgroundColor=none;rounded=0;html=1;whiteSpace=wrap;aspect=fixed;noLabel=1;snapToPoint=1;" parent="ghxMztDACuWbekmF2jji-137" vertex="1">
            <mxGeometry x="348" y="172.06" width="7.874" height="7.87" as="geometry" />
          </mxCell>
        </object>
      </root>
    </mxGraphModel>
  </diagram>
</mxfile>
